# xmcd
#
# Track frame offsets:
#	150
#	16813
#	34573
#	51448
#	74932
#	101128
#	120161
#	140085
#	162591
#	182658
#	202366
#	223719
#	241130
#	257917
#	268868
#
# Disc length: 4072 seconds
# Revision: 0
# Processed by: cddbd v1.5.2PL0 Copyright (c) Steve Scherf et al.
# Submitted via: dBpowerAMP V12.0
#
DISCID=ee0fe60f
DTITLE=ALAIN LEADFOOT RIVET - SOUTHERN ECHOES
DYEAR=2015
DGENRE=Blues
TTITLE0=THE BULLFROG
TTITLE1=SHED MY OLD SKIN
TTITLE2=HANGOVER IN HANOVER
TTITLE3=HIGHLY EDUCATED FOOL
TTITLE4=HE AIN'T HEAVY, HE IS MY BROTHER
TTITLE5=GHOST TRAIN
TTITLE6=SLOW MOTION
TTITLE7=LIVIN' WITH ME SURE IS FUNNY
TTITLE8=HE IS A LONER
TTITLE9=SOMEWHERE SOUTH OF MACON
TTITLE10=DAMNED TOURIST
TTITLE11=MISS PARANOIA
TTITLE12=DINOSAUR
TTITLE13=WHY LIE? NEED BEER!
TTITLE14=THE GAME OF LOVE
EXTD=
EXTT0=
EXTT1=
EXTT2=
EXTT3=
EXTT4=
EXTT5=
EXTT6=
EXTT7=
EXTT8=
EXTT9=
EXTT10=
EXTT11=
EXTT12=
EXTT13=
EXTT14=
PLAYORDER=
